PathFileType	4	(X/Y/Z)	C:/Users/opensim2020/Desktop/walking_exp_matlab/subject02_walking06_straight_01.trc	
DataRate	CameraRate	NumFrames	NumMarkers	Units	OrigDataRate	OrigDataStartFrame	OrigNumFrames	
100.00	100.00	8	41	mm	100.00	806	205	
Frame#	Time	LFHD			RFHD			LBHD			RBHD			C7			T10			CLAV			STRN			RBAK			LSHO			LUPA			LELB			LFRM			LWRA			LWRB			LFIN			RSHO			RUPA			RELB			RFRM			RWRA			RWRB			RFIN			LASI			RASI			LPSI			RPSI			LTHI			LKNE			LTIB			LANK			LHEE			LTOE			RTHI			RKNE			RTIB			RANK			RHEE			RTOE			*39			*40			
		X1	Y1	Z1	X2	Y2	Z2	X3	Y3	Z3	X4	Y4	Z4	X5	Y5	Z5	X6	Y6	Z6	X7	Y7	Z7	X8	Y8	Z8	X9	Y9	Z9	X10	Y10	Z10	X11	Y11	Z11	X12	Y12	Z12	X13	Y13	Z13	X14	Y14	Z14	X15	Y15	Z15	X16	Y16	Z16	X17	Y17	Z17	X18	Y18	Z18	X19	Y19	Z19	X20	Y20	Z20	X21	Y21	Z21	X22	Y22	Z22	X23	Y23	Z23	X24	Y24	Z24	X25	Y25	Z25	X26	Y26	Z26	X27	Y27	Z27	X28	Y28	Z28	X29	Y29	Z29	X30	Y30	Z30	X31	Y31	Z31	X32	Y32	Z32	X33	Y33	Z33	X34	Y34	Z34	X35	Y35	Z35	X36	Y36	Z36	X37	Y37	Z37	X38	Y38	Z38	X39	Y39	Z39	X40	Y40	Z40	X41	Y41	Z41	

52	0.510	1439.04602	-596.86859	1750.44897	1581.10437	-604.08276	1725.45850	1419.14294	-717.88159	1663.95691	1558.66956	-738.16882	1636.67676	1489.91125	-770.19324	1529.98242	1503.12805	-840.98608	1260.45337	1473.85181	-636.37976	1455.27588	1483.33008	-596.11188	1279.30225	1563.25623	-835.11084	1364.84766	1307.24133	-707.08185	1501.47241	1221.64368	-757.93195	1310.78564	1204.49768	-790.00592	1174.71509	1183.93262	-802.00067	1043.11401	1198.73828	-760.37408	911.21863	1175.24084	-810.89569	920.65808	1164.09033	-798.48151	855.96722	1671.66272	-682.09039	1495.28479	1771.54761	-700.46649	1312.41272	1801.74719	-675.03253	1168.68359	1821.48242	-628.60553	1057.76392	1800.77319	-565.06982	938.80994	1838.57666	-606.74750	930.15466	1840.86133	-558.58600	876.23572	1359.11719	-622.68396	992.08514	1614.09668	-616.18097	970.85962	1444.97046	-829.25183	1038.12378	1561.10510	-829.44476	1037.49878	1288.50867	-615.46875	694.51666	1313.72485	-582.68048	504.27863	1326.80566	-670.54565	335.89423	1360.94800	-707.02258	117.21492	1421.08740	-732.87964	96.05317	1319.32397	-575.01111	47.50036	1663.20898	-707.69177	666.71686	1613.69958	-726.25153	458.62219	1615.10938	-781.39325	277.60361	1569.13293	-815.91095	88.40217	1513.89893	-856.68945	36.09827	1577.31763	-665.54352	32.84472	1524.51062	-709.28760	1801.77551	-3360.24707	2845.15381	1033.88281 
53	0.520	1438.37390	-588.64685	1749.79407	1580.80334	-595.24371	1725.46912	1419.41553	-709.52954	1663.49207	1559.06396	-729.44171	1636.64636	1490.59668	-761.55792	1529.69177	1503.52991	-832.63226	1260.29883	1474.55579	-627.72284	1454.94360	1484.45715	-587.66437	1278.82495	1564.38342	-826.89215	1365.10571	1307.93994	-698.59851	1500.78735	1222.42981	-750.97327	1310.54700	1205.48340	-783.94696	1174.82996	1184.62732	-797.34705	1043.54297	1197.71338	-756.05841	911.55627	1175.23047	-807.51117	921.06970	1163.84985	-795.19159	856.35223	1672.07080	-673.38739	1495.42456	1772.69714	-689.72858	1312.56543	1802.92175	-662.52655	1169.10938	1821.71838	-614.58069	1058.64587	1800.57397	-549.36224	940.76343	1838.89392	-590.60083	931.46667	1840.54431	-541.67804	878.28644	1359.93237	-613.52991	991.82446	1615.26563	-608.99017	970.26617	1445.01709	-820.71307	1037.77563	1561.05945	-821.61658	1037.09375	1289.86060	-604.56689	695.12170	1315.72693	-571.79016	503.84738	1326.96484	-651.17926	330.15073	1359.39392	-675.89386	109.56379	1419.36328	-701.05804	87.54384	1318.18848	-540.31671	45.88770	1663.48132	-703.09131	666.40973	1614.08484	-722.93640	458.44431	1614.99133	-779.70679	277.81345	1568.81848	-815.47040	88.86433	1513.58008	-855.93005	36.39230	1577.51917	-665.57733	32.82901	1524.31262	-700.61774	1801.89685	-3360.23145	2845.27515	1033.79932 
54	0.530	1437.93481	-580.19568	1749.22778	1580.41797	-586.35309	1725.36780	1419.59778	-701.22101	1662.86914	1559.42310	-720.62958	1636.55750	1491.12659	-752.87769	1529.33765	1503.75989	-824.21960	1260.02673	1475.21606	-618.96350	1454.47363	1485.60657	-578.92432	1278.37744	1564.74329	-818.05890	1364.50391	1308.55005	-690.04352	1500.02161	1223.25476	-743.67743	1310.31079	1206.27966	-777.73334	1174.87415	1185.06848	-792.18457	1043.61292	1196.77478	-751.84125	911.02460	1175.65417	-803.60120	921.34198	1163.58582	-792.30554	856.64954	1672.58020	-664.51190	1495.40515	1773.61536	-679.01782	1312.69385	1803.85864	-649.97430	1169.45898	1822.29578	-600.32794	1059.62549	1800.18835	-534.01355	942.55695	1839.04773	-574.54846	932.72363	1840.00183	-524.90247	880.17188	1360.69482	-604.35632	991.46185	1616.36877	-601.76678	969.83820	1444.90112	-812.12018	1037.38843	1560.85730	-813.94843	1036.75806	1290.80334	-594.46960	695.24548	1317.61499	-561.37506	503.09714	1327.16602	-631.57629	324.76523	1357.89197	-644.61719	102.86797	1417.03064	-669.24866	79.69289	1317.24744	-505.78195	45.41335	1663.78223	-698.37866	666.04578	1614.09631	-719.85114	458.08066	1614.82288	-777.97052	278.10828	1568.46252	-814.95941	89.33996	1512.96716	-855.60748	37.17794	1577.69336	-665.35309	32.67111	1523.99207	-691.92664	1801.53125			 
55	0.540	1437.43445	-571.72455	1748.60632	1580.01807	-577.45502	1725.21021	1419.74316	-692.71149	1662.12451	1559.70471	-711.75897	1636.30090	1491.52734	-744.07770	1528.84656	1503.82788	-815.86633	1259.73584	1475.78040	-610.16125	1453.95117	1486.63147	-570.28088	1277.76807	1565.25806	-809.37103	1364.28503	1309.05225	-681.24866	1499.23621	1224.15442	-735.72919	1309.96216	1207.11218	-771.09717	1174.83948	1185.63171	-786.95728	1043.88220	1196.11694	-748.22656	910.87152	1175.64673	-799.57391	921.60779	1163.38928	-789.15210	856.85931	1673.01440	-655.44849	1495.31201	1774.33167	-668.41003	1312.75464	1804.76379	-637.49200	1169.75427	1822.46313	-586.39154	1060.41162	1799.67468	-518.62341	944.29462	1838.96570	-558.71149	933.97278	1839.23267	-508.47552	882.01874	1361.53296	-595.13837	991.01105	1617.34656	-594.49304	969.46069	1444.54370	-803.46375	1036.93298	1560.33911	-806.31372	1036.23157	1291.80457	-584.62952	695.06854	1319.31238	-551.06976	501.92056	1327.43689	-612.17969	319.55582	1356.12683	-613.84961	97.21278	1415.62134	-637.33710	72.69643	1316.28101	-471.75961	46.18880	1663.97791	-693.60309	665.63977	1614.42664	-716.36127	458.05783	1614.57092	-776.23157	278.39108	1568.04492	-814.49780	89.92250	1512.32031	-855.12372	37.90373	1577.86572	-665.19324	32.62664	1523.69666	-683.18707	1801.25208			 
56	0.550	1436.91052	-563.20935	1747.91101	1579.57080	-568.56744	1724.94458	1419.82385	-684.23193	1661.27490	1559.91003	-702.87030	1635.89441	1491.82361	-735.22711	1528.20569	1503.69971	-807.35748	1259.27698	1476.28271	-601.30322	1453.33313	1487.62683	-561.50818	1277.11096	1565.88074	-800.72650	1364.11621	1309.51489	-672.45526	1498.39612	1224.93286	-727.91681	1309.53210	1207.84497	-764.28278	1174.69080	1185.60864	-782.18555	1044.15479	1195.68396	-743.81934	910.69269	1175.74890	-795.53918	921.98285	1163.17151	-785.79449	857.16791	1673.28857	-646.61871	1495.04883	1775.01355	-657.85040	1312.50916	1805.41675	-625.14093	1169.86487	1822.55884	-572.44342	1061.19543	1799.17773	-503.29401	946.20844	1838.81384	-542.99908	935.10321	1838.54761	-492.09406	883.78540	1362.38489	-585.79034	990.43823	1618.36230	-587.17072	969.13257	1444.01672	-794.69690	1036.36011	1559.67725	-798.74927	1035.62793	1292.76660	-574.92004	694.09857	1320.74634	-540.76617	500.58426	1327.85339	-592.57056	314.84030	1354.55615	-583.44043	92.65356	1413.58484	-606.28479	67.18117	1315.48462	-438.64703	47.90547	1664.31445	-688.88782	665.30316	1614.67078	-713.09735	457.63455	1614.38354	-774.57495	278.77686	1567.59375	-814.05127	90.52335	1511.68872	-854.74304	38.68854	1578.08264	-665.06464	32.59822	1523.26550	-674.48114	1800.74475	-3356.98242	2845.86377	1033.77100 
57	0.560	1436.31079	-554.74646	1747.13770	1579.09863	-559.66449	1724.57190	1419.79626	-675.75128	1660.38770	1560.02295	-693.91986	1635.35938	1492.05872	-726.41125	1527.54395	1503.37952	-798.73877	1258.72278	1476.73572	-592.33142	1452.63281	1488.42676	-552.73608	1276.34424	1566.06299	-791.95770	1363.61890	1309.83435	-663.42566	1497.45740	1225.34216	-720.14673	1309.07568	1208.20850	-757.74719	1174.64905	1185.92883	-776.32330	1043.96985	1195.51746	-739.10919	910.38312	1175.82568	-790.99835	922.08649	1162.92163	-782.31055	857.28076	1673.52649	-637.79181	1494.54858	1775.48315	-647.40192	1312.16455	1805.93591	-612.85504	1169.88611	1822.49414	-558.67334	1061.80469	1798.49951	-488.29016	947.71613	1838.43738	-527.47614	936.14130	1837.68201	-475.97299	885.52423	1363.28601	-576.33557	989.79865	1619.39246	-579.76086	968.75940	1443.31812	-785.76239	1035.72229	1558.74109	-791.10211	1034.92456	1293.59119	-565.91327	693.23022	1322.08008	-530.39996	499.24442	1327.91992	-573.37366	311.01675	1353.12122	-553.63879	89.27189	1411.62646	-576.09967	62.82789	1315.15723	-406.41354	50.51353	1664.54932	-684.10504	664.94849	1614.70056	-709.51996	457.58981	1614.20459	-772.85760	279.19559	1567.22839	-813.57275	91.14761	1510.91125	-854.30804	39.29430	1578.36218	-664.93817	32.58838	1522.84924	-665.88513	1800.16248	-3356.83423	2845.91748	1033.98108 
58	0.570	1435.74194	-546.11115	1746.29993	1578.53430	-550.76123	1724.19312	1419.70361	-667.06177	1659.30981	1560.04834	-684.95520	1634.71582	1492.15393	-717.42291	1526.80334	1502.92139	-790.08789	1258.09558	1477.05481	-583.33270	1451.82275	1489.09717	-543.96643	1275.49585	1566.18848	-783.63568	1363.26416	1310.06140	-654.22656	1496.47217	1225.66602	-712.07715	1308.49902	1208.57617	-750.65717	1174.37231	1186.48279	-770.14258	1044.04187	1195.33081	-734.49500	910.02563	1175.99866	-786.61707	922.24896	1162.96912	-778.33221	857.36316	1673.67480	-629.11829	1494.25317	1775.78320	-637.01135	1311.74316	1806.27686	-600.74182	1169.79700	1822.46826	-545.02722	1062.45544	1797.58594	-473.41080	949.16217	1837.95776	-512.10779	937.11597	1836.83643	-459.85257	887.17255	1364.36487	-566.63879	989.22198	1620.42883	-572.32336	968.32843	1442.41333	-776.77716	1035.02405	1557.58777	-783.52319	1034.13025	1294.47839	-556.97974	691.57330	1323.38440	-520.00555	498.06467	1327.42737	-554.13739	307.69391	1351.83154	-524.49628	86.87251	1410.06091	-546.35254	59.50902	1315.33667	-375.17719	53.85652	1664.82483	-679.32764	664.65466	1614.95020	-705.86084	457.33063	1614.05737	-770.94073	279.62708	1566.83911	-813.12225	91.85088	1510.31946	-853.86346	40.34811	1578.57568	-664.95392	32.54838	1522.30847	-657.17072	1799.32422	-3360.26587	2845.17773	1033.80518 
59	0.580	1435.02795	-537.62170	1745.33081	1578.00000	-541.82703	1723.67957	1419.54419	-658.37921	1658.18042	1559.99609	-675.88599	1633.92151	1492.16370	-708.40002	1526.00269	1502.25000	-781.40485	1257.38904	1477.22400	-574.32556	1450.94373	1489.74561	-534.97009	1274.57104	1566.10669	-775.09583	1362.67322	1310.17090	-644.92731	1495.43286	1225.82129	-703.81213	1307.94019	1209.03967	-742.97284	1174.08228	1186.22888	-764.56226	1043.96643	1194.99475	-730.08539	909.74896	1175.78003	-781.76373	922.41724	1162.89307	-774.24719	857.52399	1673.74316	-620.31256	1493.56287	1775.88611	-626.72937	1311.22253	1806.48157	-588.74506	1169.55957	1822.18652	-531.59283	1062.85999	1796.74683	-458.67343	950.61926	1837.32495	-496.99878	937.97449	1835.83276	-443.93115	888.74866	1365.23865	-556.91852	988.11890	1621.48779	-564.82141	967.70917	1441.34265	-767.54376	1034.19092	1556.28235	-775.83191	1033.26379	1294.06262	-548.63062	690.22461	1324.43262	-509.48071	497.08060	1326.59302	-535.47626	305.36816	1350.66675	-496.07257	85.23152	1408.69873	-517.72241	57.30793	1316.49304	-344.81400	58.17228	1664.99792	-674.44806	664.29785	1615.16406	-702.06158	457.14566	1613.79968	-769.17285	280.09598	1566.38098	-812.65149	92.55483	1509.55127	-853.36633	41.10878	1578.77673	-664.83405	32.47080	1521.75122	-648.49261	1798.41016	-3360.22925	2845.13062	1033.94922 
